<?xml version="1.0" encoding="UTF-8"?>
<svg version="1.1" viewBox="0 0 2048 1631" width="231" height="184" xmlns="http://www.w3.org/2000/svg">
<path transform="translate(1031,321)" d="m0 0h9l4 4-6 9-12 14-15 16-9 11-7 8-2 4 11 1 49 6 44 8 31 7 27 8 25 9 25 11 23 12 22 14 13 11 7 6v2h2l14 16 8 13 8 16 5 14 3 19 1 8v19l-3 24-4 17-8 23-10 21-9 14-9 12-9 11-18 18-10 8-15 11-14 9-21 12-18 10-24 11-38 15-37 13-10 3 16 3 24 4 30 7 31 9 31 11 21 9 19 9 17 10 19 14 12 11 10 10 11 14 10 15 9 17 9 25 5 21 3 19v26l-4 26-5 19-8 21-10 21-10 17-14 21-11 14-11 13-9 10-22 22-11 9-16 13-18 13-18 11-17 10-24 13-30 14-27 11-19 7-26 8-36 9-34 6-28 3-33 2h-109l-55-3-43-4-42-6-56-11-11-2-6 5h-2l-2 4-6 5-7 8-10 9-22 18-9 7-23 16-24 14-23 12-20 9-25 9-19 6-28 7-42 7-19 2-17 1h-15l-27-2-20-4-20-6-12-5-15-8-12-9-10-9-11-14-7-12-8-19-4-19v-19l3-14 6-16 8-15 10-14 9-10 8-8 16-12 14-8 24-10 22-6 23-4 17-2h45l24 3 24 5 28 7 44 13 51 17 38 12 15 4 4-1 8-11 13-21 10-18 12-22 17-35 13-30 16-41 15-40 13-37 13-38 15-49 14-47 15-47 19-56 19-51 15-39 15-36 14-32 14-30 10-21 12-22 11-21 29-49 13-21 31-51 6-12-73 4-48 4-33 4-52 8-45 9-38 9-36 10-61 20-38 14-42 17-29 13-23 11-23 13-14 8-22 14-18 13-12 9-13 11-14 12-16 15-7 7-7 8-11 12-13 17-10 13-9 14-13 21-14 27-10 23-5 15-7 28-3 22v17l3 20 6 23 8 19 9 14 11 12 10 8 16 9 15 6 17 4 17 2h43l22-4 18-6 18-8 14-8 16-12 3-3h2v-2l5-5 9-10 12-17 9-16 7-14 7-20 4-18 2-31 4-4h8l8 2 6 4 2 3 1 6v17l-4 26-5 20-8 20-10 18-10 14-9 11-12 13-11 10-18 13-21 12-19 9-15 5-20 5-27 3h-30l-25-3-24-6-22-8-21-10-15-10-13-11-13-13-11-15-9-16-8-18-6-19-5-23-2-23 1-21 4-24 5-20 6-18 11-26 13-25 12-19 13-19 14-19 9-10 9-11 8-8 7-8 15-14 12-11 28-22 18-13 17-11 25-15 18-10 17-9 24-11 36-15 42-15 52-16 45-12 37-9 44-10 57-11 53-8 49-5 28-2 22-1 41-1h47l8-2 9-9 7-8 15-15 14-11 17-11zm-43 100-4 4-8 17-13 30-20 48-11 27-21 53-19 49-34 90-11 29-13 35-17 47-11 29-18 48-16 41-18 45-16 39-16 37-13 29-15 33-28 56-13 23-13 22-13 19-14 19-8 10-8 9 3 3 18 5 23 5 43 6 38 4 42 3 25 1h62l53-3 30-3 28-5 32-8 30-10 25-11 23-12 23-14 19-14 13-11 10-9 11-10 7-8 7-7 8-10 14-17 18-27 10-18 9-19 8-24 6-26 2-15v-15l-2-20-5-24-6-17-8-16-7-12-10-13-14-14-16-12-19-11-19-9-33-11-30-7-39-7-98-14-41-7-16-5-10-5-3-5 1-7 6-9 8-5 16-5 23-4 77-9 35-5 24-5 21-7 21-11 19-12 16-12 14-11 15-14 11-11 9-11 13-17 12-20 8-15 10-24 7-24 2-14v-21l-2-16-5-17-8-16-7-11-11-13-13-11-15-10-14-8-26-11-26-8-26-6-35-6-31-3zm-711 851-24 2-15 3-14 6-10 7-10 9-10 14-7 15-4 12-2 11v11l4 15 8 16 9 13 14 14 15 9 11 5 12 3 17 2h25l25-3 27-6 26-8 25-10 26-13 23-14 18-13 13-10 17-14 12-11 10-10-1-3-39-11-45-12-50-13-37-9-22-4-17-2-19-1z" fill="#7048D7"/>
<path transform="translate(1339,144)" d="m0 0 4 1 6 10 18 41 16 35 13 29 19 43 16 36 19 43 19 42 13 30 16 35 18 41 13 29 17 38 11 25 13 29 18 41 16 35 18 41 16 35 11 25 16 36 18 40 18 41 19 42 13 30 16 35 18 41 19 42 18 41 18 40 18 41 12 27 15 33 12 23 12 18 9 11 9 10 11 10 14 10 13 8 23 11 19 5 1 3h-287l-3-2 9-4 16-7 13-9 9-8 8-14 4-16v-12l-4-16-7-20-16-36-19-42-14-31-13-29-19-42-18-41-14-32-4-7-33-1h-221l-3-3v-13l1-4 2-1h32l212 1-10-21-13-29-18-40-18-39-12-27-38-84-12-27-13-29-18-40-16-35-16-36-17-37-26-58-16-35-9-20-26-58-19-43-12-27-13-30-2-5h-3l-2 5-7 14-10 23-18 39-4 8-4 2-19-11-2-2 1-5 10-21 7-15 14-31 15-34 13-30 14-32 13-30 18-42 5-10z" fill="#7149D8"/>
<path transform="translate(1e3 912)" d="m0 0h10l14 2 1 3-16 33-13 30-24 54-1 2h204l10 1 3 3 1 7-2 7-3 2-50 1-171 1-5 8-9 19-15 35-17 37-18 41-17 39-16 35-7 13-5 4-4 1h-13l-2-1 1-7 8-17 21-49 20-45 13-30 18-41 13-29 15-34 22-51 15-34 9-21 7-16z" fill="#7048D7"/>
<path transform="translate(1168,531)" d="m0 0h5l4 5 6 17v9l-13 32-19 43-11 23-11 17-9 10-10 9-11 7-5 2-1-3 10-23 14-31 13-30 20-45 17-41z" fill="#7048D7"/>
<path transform="translate(1377,1036)" d="m0 0h32l33 1-3 2 5 1h11l3-1v2l15-1 18 2h10l16 2h19l6 2 12-2 11 1 4 2 8 1h6v2l8 1-1 2 2 2-14 1-102 1h-99l-3-3v-13l1-4z" fill="#633ECB"/>
<path transform="translate(732,1412)" d="m0 0h20l108 3 14 2 15 4 3 2-1 3h-180l-13-1-2-3 17-3 12-4z" fill="#643ECC"/>
<path transform="translate(723,1416)" d="m0 0 3 3v2l11-1 7 1h10l9-1h44l8 4v-2l6-1 1 4 32-1 2-4 3-2 2-2h8l17 4 6 3-1 3h-180l-13-1-2-3 17-3z" fill="#7048D7"/>
<path transform="translate(764,393)" d="m0 0h11v2l-9 2-5 1-16 2-15 3-12 2-7 4-6 2h-25l-5 2h-7l-4 2-9 3-8 1h-10l-12 5-10 2-12 3h-7l-3-2 4-3 59-13 53-10 47-7z" fill="#643FCC"/>
<path transform="translate(887,1358)" d="m0 0h10l3 1 1 2 4 2-7 2-8 1h-83l-17-1v-3l11-2h58z" fill="#633ECB"/>
<path transform="translate(1186,1045)" d="m0 0h3v9l-3 2h-48l-25-2-2 1v-3l-1 2-5-2v-1l34-3 7-2h27l2 1h8z" fill="#633ECB"/>
<path transform="translate(585,427)" d="m0 0h6l-1 3-8 3-4 1-5 1-8 3-11 2-15 3v2l-7 1-8 3-7 1-8 3-5 1-7 2-12 3-16 6-14 3 1-4 34-11 48-14 43-11z" fill="#653FCC"/>
<path transform="translate(1377,1036)" d="m0 0h32v2h-12l-6 1-2 5 3 1 1 8 5 2h58l20 1v1h-99l-3-3v-13l1-4z" fill="#7149D8"/>
<path transform="translate(885,407)" d="m0 0h3v2h10l4 1 1 6-19 3h-14v-2l-14 1-1-2 2-2 1-3 24-3z" fill="#633ECB"/>
<path transform="translate(861,1416)" d="m0 0h8l17 4 6 3-1 3h-68v-1l31-1 2-4 3-2z" fill="#7149D8"/>
<path transform="translate(535,1366)" d="m0 0 5 2-6 7-5 1-1 2-7 3 4-1-2 4h-2l-1 4-10 8-7 5h-4l-1-4 3-3v2h2l2-6 5-3v-2l8-5 5-4h2v-2z" fill="#643FCC"/>
<path transform="translate(327,975)" d="m0 0h8l-2 4-7 2-19 1h-8l-8-2-1-2 23-1z" fill="#633ECB"/>
<path transform="translate(1029,337)" d="m0 0h3l-1 5-7 8-12 13-3 1-1-3 4-4 5-9 3-3h2l2-4z" fill="#643FCC"/>
<path transform="translate(642,1322)" d="m0 0 12 1 17 3-3 3-3 1h-15l-8-3-3-4z" fill="#643FCC"/>
<path transform="translate(217,1281)" d="m0 0h8l-3 3h-2l-2 4-10 8-6 7h-2l1-5 2-2v-3l5-1-1-3 6-4z" fill="#653FCC"/>
<path transform="translate(224,969)" d="m0 0 4 1v2l4 1 5 5 7 6-4 3-3-1v-2l-6-2-3-3v-2h-2v-2h-2z" fill="#633ECB"/>
<path transform="translate(668,1350)" d="m0 0h14l5 3-1 3h-9l-4 1-1-1-13-2-1-2z" fill="#633ECB"/>
<path transform="translate(445,940)" d="m0 0h2l-1 5-7 7-8 4 2-6 5-8z" fill="#643FCC"/>
<path transform="translate(320,1236)" d="m0 0h12l8 2-2 2-6 2-12-3z" fill="#643FCC"/>
<path transform="translate(1182,1037)" d="m0 0 3 2-3 6-3-3h-9l-5-3v-1z" fill="#633ECB"/>
<path transform="translate(1442,1037)" d="m0 0h11l3 1-1 3h-11l-17-2v-1z" fill="#6E47D5"/>
<path transform="translate(922,1357)" d="m0 0h10v2l2 1v2l-6 1h-10z" fill="#633ECB"/>
<path transform="translate(877,1419)" d="m0 0 9 1 4 2-2 3h-9z" fill="#643ECC"/>
<path transform="translate(888,1333)" d="m0 0h22v2l-26 1-1-2z" fill="#6540CD"/>
<path transform="translate(1081,400)" d="m0 0 11 1 2 2-3 1-2-1-1 2h-6l-3-4z" fill="#653FCD"/>
<path transform="translate(908,801)" d="m0 0h7l-1 2-11 3-4-1 3-3z" fill="#6540CD"/>
<path transform="translate(301,604)" d="m0 0 4 1-2 4-6 2v-5z" fill="#633ECB"/>
<path transform="translate(341,998)" d="m0 0 3 1-4 4-4 2h-5l1-3 8-3z" fill="#633ECB"/>
<path transform="translate(535,1366)" d="m0 0 2 4-6 3-1-3z" fill="#6842D0"/>
</svg>
