<svg width="275" height="177" viewBox="0 0 275 177" fill="none" xmlns="http://www.w3.org/2000/svg">
<path d="M133.75 0H140.25L144 0.5L148.25 1.5L152.5 3.25L156.25 5.25L160.5 8.25L163.75 11.25L167.25 14.75L169.5 17.5L173 22.25L176.25 27.5L178.75 32L182.25 39L187 50.25L190 57.75L193.75 67L198 77.5L203.5 91L208.5 103.5L213.25 115L216.25 121.75L219.25 128L222.5 134.5L226 140.5L229 145.25L232 149.5L234.75 153L238 156.75L240.25 159L243 161.25L246.75 164L251.5 166.5L256.5 168.25L260.75 169.25L262.5 169.5H269.75L273.5 168.75L274.25 168.5L274.75 168.75V170.25L273.5 171.25L269 173.25L262.5 175.25L257.25 176.25L254.25 176.5H247L242.25 176L236.25 174.5L231.25 172.75L226 170.5L221 167.75L218 165.75L213.75 162.5L210.25 159.5L205 154.25L202.75 151.5L200.25 148.5L197 144L194.25 139.75L191.5 135L189.5 131.5L186.25 124.5L183 116.75L179.25 106.75L177.5 102V101.5H134.5L134.25 102.75L131.25 110L130 113L129.5 112.75V84.5L134 74.25L137.75 65.75L140 60.5L144 51.5L147 44.5L150.75 36L151.5 34.25L151.25 32.75L148.5 27L145.75 22.25L143 18.25L141.5 16.25V6.75H112.75L113.5 6L118.5 3.75L125.25 1.5L131.5 0.25L133.75 0ZM157 47.5L155.75 50.25L152.5 58.25L147.5 70.25L142.75 81.5L139.5 89.25L138 92.75V93.5L141.5 93.75H173.75L174.5 93.5L174.25 92.25L170 81L165 67.75L161.25 57.75L158.75 51L157.5 47.5H157Z" fill="url(#paint0_linear_5014_1840)"/>
<path d="M0.25 12.25H31.25L32 13.5L36.75 25.75L40 34L45 46.75L49.75 59L52.5 66L57.5 78.75L61.5 89L66.5 101.75L69 108.25L69.5 107.75L73.5 97L78 85L83.75 69.5L87.5 59.5L92.25 46.75L101.25 22.75L104.75 13.5L105.25 12.25H136V14.25L130.25 14.75L127.75 15.5L126 16.5L124.75 18.75L124.25 22.25V125L124.5 128L125.5 130.25L126.5 131.5L128.5 132.5L131.75 133L136 133.25L136.25 134.5L136 135.25L133.25 135.5H99L93.25 135.25V133.5L93.5 133.25L99.5 132.75L102.25 132L103.5 130.75L104.5 129L105 126.25L105.25 53.25V20.5L105 20.25L103.5 24L102 28L98 39L95.25 46.25L89.75 61L85.75 71.75L79.75 87.75L75.75 98.5L72 108.5L68.75 117.25L65 127.25L62 135L61.25 135.5L59.25 135.25L56.25 127.75L52 116.75L42 90.75L37.75 79.75L33.25 68L29 57L24.5 45.25L19.25 31.5L17.5 27.25L16.75 25.25L16.5 34.5V45.75L16.75 126.75L17.5 129.75L19 131.5L21 132.5L24 133L28.25 133.25L28.5 133.5V135.25L25 135.5H7.25L2 135.25V133.5L2.25 133.25L8.5 132.75L11 132L12.5 130.75L13.25 129.5L13.75 127.5L14 108.75V19.75L13 18.25L11.75 17L9.75 15.75L7 15L3.25 14.5L0 14.25V12.5L0.25 12.25Z" fill="url(#paint1_linear_5014_1840)"/>
<defs>
<linearGradient id="paint0_linear_5014_1840" x1="102.5" y1="12" x2="287.538" y2="70.8604" gradientUnits="userSpaceOnUse">
<stop offset="0.0905078" stop-color="#BA5CEE"/>
<stop offset="0.950222" stop-color="#351555"/>
</linearGradient>
<linearGradient id="paint1_linear_5014_1840" x1="60.5" y1="49.5" x2="210.222" y2="98.2212" gradientUnits="userSpaceOnUse">
<stop stop-color="#BA5CEE"/>
<stop offset="1" stop-color="#351555"/>
</linearGradient>
</defs>
</svg>
